<?xml version="1.0" encoding="UTF-8" standalone="no"?>
<svg
   class="ionicon"
   viewBox="0 0 512 512"
   version="1.1"
   id="svg1"
   sodipodi:docname="pgtakeoff1.svg"
   inkscape:version="1.3.1 (9b9bdc1480, 2023-11-25, custom)"
   xmlns:inkscape="http://www.inkscape.org/namespaces/inkscape"
   xmlns:sodipodi="http://sodipodi.sourceforge.net/DTD/sodipodi-0.dtd"
   xmlns="http://www.w3.org/2000/svg"
   xmlns:svg="http://www.w3.org/2000/svg">
  <defs
     id="defs1" />
  <sodipodi:namedview
     id="namedview1"
     pagecolor="#ffffff"
     bordercolor="#666666"
     borderopacity="1.0"
     inkscape:showpageshadow="2"
     inkscape:pageopacity="0.0"
     inkscape:pagecheckerboard="0"
     inkscape:deskcolor="#d1d1d1"
     showgrid="false"
     inkscape:zoom="0.54345915"
     inkscape:cx="-347.77223"
     inkscape:cy="423.21488"
     inkscape:window-width="1920"
     inkscape:window-height="1153"
     inkscape:window-x="0"
     inkscape:window-y="47"
     inkscape:window-maximized="1"
     inkscape:current-layer="g2" />
  <g
     id="g1"
     transform="matrix(1.0595274,0,0,1.0595274,-639.11631,74.626827)"
     style="fill:#000000">
    <g
       id="g2"
       transform="translate(-10.736022,4.6011748)">
      <g
         id="g3"
         style="clip-rule:evenodd;fill:#000000;fill-rule:evenodd;image-rendering:optimizeQuality;shape-rendering:geometricPrecision;text-rendering:geometricPrecision"
         transform="matrix(2.1802082,0,0,2.1802082,655.83212,-62.289263)" />
      <g
         id="g16"
         style="clip-rule:evenodd;fill:#000000;fill-rule:evenodd;image-rendering:optimizeQuality;shape-rendering:geometricPrecision;text-rendering:geometricPrecision"
         transform="matrix(3.9419228,0,0,3.9419228,440.08687,-450.08987)">
        <path
           style="opacity:1;fill:#000000"
           fill="#96a4a5"
           d="m 116.5,79.5 c -0.968,2.1074 -1.302,4.4407 -1,7 -1.3,-2.5241 -1.3,-5.1908 0,-8 0.607,0.1236 0.94,0.4569 1,1 z"
           id="path15" />
      </g>
      <g
         id="g17"
         style="clip-rule:evenodd;fill:#000000;fill-rule:evenodd;image-rendering:optimizeQuality;shape-rendering:geometricPrecision;text-rendering:geometricPrecision"
         transform="matrix(3.9419228,0,0,3.9419228,440.08687,-450.08987)">
        <path
           style="opacity:1;fill:#000000"
           fill="#4b6165"
           d="m 38.5,65.5 c 1.5174,0.0106 2.6841,0.6772 3.5,2 13.4248,17.8473 27.0914,35.514 41,53 -3.8535,-16.74 -8.3535,-33.4067 -13.5,-50 0.7739,-1.2112 1.6072,-1.2112 2.5,0 4.98,18.7417 10.1467,37.408 15.5,56 -0.3333,0.333 -0.6667,0.667 -1,1 -16.9737,-19.965 -32.9737,-40.632 -48,-62 z"
           id="path16"
           sodipodi:nodetypes="cccccccc" />
      </g>
      <g
         id="g18"
         style="clip-rule:evenodd;fill:#000000;fill-rule:evenodd;image-rendering:optimizeQuality;shape-rendering:geometricPrecision;text-rendering:geometricPrecision"
         transform="matrix(3.9419228,0,0,3.9419228,440.08687,-450.08987)">
        <path
           style="opacity:1;fill:#000000"
           fill="#4b6266"
           d="m 116.5,79.5 c 0.872,15.5313 2.038,31.198 3.5,47 4.167,-7 8.333,-14 12.5,-21 l 1,1 c -4.637,8.618 -9.637,16.951 -15,25 -1.553,-14.962 -2.553,-29.962 -3,-45 -0.302,-2.5593 0.032,-4.8926 1,-7 z"
           id="path17"
           sodipodi:nodetypes="ccccccc" />
      </g>
      <g
         id="g19"
         style="clip-rule:evenodd;fill:#000000;fill-rule:evenodd;image-rendering:optimizeQuality;shape-rendering:geometricPrecision;text-rendering:geometricPrecision"
         transform="matrix(3.9419228,0,0,3.9419228,440.08687,-450.08987)">
        <path
           style="opacity:1;fill:#000000"
           fill="#8f9fa2"
           d="m 117.5,135.5 c 0.326,4.384 -0.008,8.717 -1,13 -0.607,-0.124 -0.94,-0.457 -1,-1 0.667,-4 1.333,-8 2,-12 z"
           id="path18" />
      </g>
      <g
         id="g20"
         style="clip-rule:evenodd;fill:#000000;fill-rule:evenodd;image-rendering:optimizeQuality;shape-rendering:geometricPrecision;text-rendering:geometricPrecision"
         transform="matrix(3.9419228,0,0,3.9419228,440.08687,-450.08987)">
        <path
           style="opacity:1;fill:#000000"
           fill="#405b5e"
           d="m 126.5,149.5 c 7.41,-1.455 13.577,0.545 18.5,6 0.667,2.333 0.667,4.667 0,7 -2.179,0.616 -4.012,1.783 -5.5,3.5 -6.799,0.545 -8.966,-2.288 -6.5,-8.5 3.146,2.326 6.646,3.659 10.5,4 -0.483,-6.866 -4.316,-10.199 -11.5,-10 -1.167,0.333 -2.333,0.667 -3.5,1 1.09,1.109 1.09,2.109 0,3 -3.695,-1.525 -4.361,-3.525 -2,-6 z"
           id="path19"
           sodipodi:nodetypes="cccccccccc" />
      </g>
      <g
         id="g21"
         style="clip-rule:evenodd;fill:#000000;fill-rule:evenodd;image-rendering:optimizeQuality;shape-rendering:geometricPrecision;text-rendering:geometricPrecision"
         transform="matrix(3.9419228,0,0,3.9419228,440.08687,-450.08987)">
        <path
           style="opacity:1;fill:#000000"
           fill="#3a5a5e"
           d="m 117.5,135.5 c 0.1882,1.07266 0.67392,-3.01756 0.74665,-1.95469 0.36676,5.35958 -0.83845,15.83303 -0.24665,21.95469 -1.865,2.173 -4.031,2.507 -6.5,1 -3.469,-2.938 -4.636,-6.604 -3.5,-11 3.178,-1.667 5.678,-1 7.5,2 0.06,0.543 0.393,0.876 1,1 0.992,-4.283 1.326,-8.616 1,-13 z"
           id="path20"
           sodipodi:nodetypes="cscccccc" />
      </g>
      <g
         id="g22"
         style="clip-rule:evenodd;fill:#000000;fill-rule:evenodd;image-rendering:optimizeQuality;shape-rendering:geometricPrecision;text-rendering:geometricPrecision"
         transform="matrix(3.9419228,0,0,3.9419228,440.08687,-450.08987)">
        <path
           style="opacity:1;fill:#000000"
           fill="#3e5e62"
           d="m 90.5,134.5 c 0.9959,-0.086 1.8292,0.248 2.5,1 3.539,7.25 7.706,14.083 12.5,20.5 7.333,3 14.667,6 22,9 2.148,2.075 2.482,4.408 1,7 -11.622,1.955 -18.122,8.789 -19.5,20.5 -0.785,1.786 -1.951,3.286 -3.5,4.5 -4.984,2.37 -10.1506,4.204 -15.5,5.5 -4.2707,-0.726 -5.4374,-3.059 -3.5,-7 12.387634,-1.26472 15.94403,-6.74986 19.59843,-19.27602 1.40523,-4.81665 3.37984,-5.92377 5.04089,-8.27399 C 113.73036,164.28395 95.193073,160.1647 92.5,160 c -2.8988,-3.156 -2.5655,-5.822 1,-8 2.1687,-0.429 4.1687,0.071 6,1.5 0.3333,-0.333 0.667,-0.667 1,-1 -3.8649,-5.732 -7.1982,-11.732 -10,-18 z"
           id="path21"
           sodipodi:nodetypes="cccccccccssccccc" />
      </g>
      <g
         id="g24"
         style="clip-rule:evenodd;fill:#000000;fill-rule:evenodd;image-rendering:optimizeQuality;shape-rendering:geometricPrecision;text-rendering:geometricPrecision"
         transform="matrix(3.9419228,0,0,3.9419228,440.08687,-450.08987)">
        <path
           style="opacity:1;fill:#000000"
           fill="#3e5e62"
           d="m 116.5,181.5 c 5.851,0.655 9.76743,3.322 13.58243,8 1.667,2.667 4.25057,5.333 5.91757,8 0.769,2.599 0.602,5.099 -0.5,7.5 -1.667,0.667 -3.333,0.667 -5,0 -3.007,-7.341 -7.84,-13.174 -14.5,-17.5 -0.678,-2.098 -0.511,-4.098 0.5,-6 z"
           id="path23"
           sodipodi:nodetypes="ccccccc" />
      </g>
    </g>
  </g>
</svg>
