<?xml version="1.0" standalone="no"?>
<!DOCTYPE svg PUBLIC "-//W3C//DTD SVG 20010904//EN"
 "http://www.w3.org/TR/2001/REC-SVG-20010904/DTD/svg10.dtd">
<svg version="1.0" xmlns="http://www.w3.org/2000/svg"
 width="700.000000pt" height="700.000000pt" viewBox="0 0 700.000000 700.000000"
 preserveAspectRatio="xMidYMid meet">
<metadata>
Created by potrace 1.14, written by Peter Selinger 2001-2017
</metadata>
<g transform="translate(0.000000,700.000000) scale(0.100000,-0.100000)"
fill="#000000" stroke="none">
<path d="M2580 6559 c-804 -75 -1495 -460 -1883 -1049 -129 -196 -218 -409
-269 -642 -19 -89 -22 -134 -23 -328 0 -198 3 -238 23 -335 60 -281 170 -520
350 -759 l75 -100 -17 -99 c-39 -243 -168 -516 -345 -731 -84 -102 -91 -115
-91 -172 0 -60 27 -107 80 -138 28 -17 49 -20 119 -18 337 8 768 165 1153 419
l99 64 92 -31 c130 -44 309 -87 472 -112 119 -19 181 -22 420 -22 300 0 421
12 665 68 68 16 108 21 115 15 6 -6 10 -79 11 -172 1 -180 13 -256 69 -422
137 -414 501 -904 1030 -1387 145 -132 212 -172 319 -190 136 -23 254 18 388
136 427 373 797 821 984 1191 123 245 174 435 174 655 0 752 -585 1393 -1337
1466 -40 3 -77 12 -82 18 -7 8 1 47 24 117 206 651 28 1326 -485 1839 -406
406 -983 663 -1620 720 -131 11 -384 11 -510 -1z m-802 -1427 c99 -23 129 -42
160 -105 32 -63 24 -115 -27 -170 -46 -48 -92 -56 -203 -33 -163 34 -317 12
-318 -46 0 -12 101 -54 219 -92 153 -49 240 -96 301 -162 68 -75 93 -145 88
-249 -6 -138 -71 -242 -189 -305 -83 -44 -148 -60 -246 -60 -99 0 -155 11
-295 56 -120 40 -161 71 -179 138 -14 53 2 109 45 152 52 52 88 53 230 8 94
-30 137 -39 191 -39 86 1 135 23 135 60 0 35 -39 56 -190 106 -172 57 -256 98
-312 155 -76 75 -93 120 -93 239 0 89 3 106 27 151 53 101 155 176 285 209 74
19 256 12 371 -13z m685 3 c16 -10 105 -123 199 -252 94 -128 175 -232 180
-231 4 2 83 106 176 232 92 126 179 238 194 249 15 11 48 22 75 24 56 6 102
-20 140 -76 l23 -34 0 -509 c0 -552 0 -553 -55 -596 -63 -50 -142 -48 -198 5
-51 49 -52 54 -57 318 l-5 250 -91 -125 c-50 -69 -105 -135 -124 -147 -42 -29
-112 -31 -156 -4 -17 10 -74 78 -127 151 l-97 133 0 -244 c0 -222 -2 -246 -20
-283 -52 -108 -193 -120 -262 -24 l-23 33 -3 518 c-2 513 -2 519 19 556 43 76
142 102 212 56z m1892 -4 c66 -17 86 -27 116 -59 51 -54 59 -106 27 -170 -13
-26 -39 -57 -58 -70 -39 -27 -68 -26 -220 3 -90 17 -142 13 -197 -12 -39 -18
-43 -46 -10 -67 12 -8 84 -35 160 -60 76 -26 166 -60 199 -77 77 -39 152 -109
186 -174 24 -44 27 -61 27 -150 0 -87 -3 -107 -26 -156 -68 -145 -218 -229
-408 -229 -129 0 -367 64 -419 113 -82 76 -67 208 28 258 49 27 78 24 204 -18
84 -27 128 -36 181 -37 86 0 135 22 135 59 0 35 -39 56 -190 106 -185 61 -260
101 -324 170 -71 76 -90 132 -84 243 4 63 11 93 32 135 51 99 153 175 279 207
73 19 260 11 362 -15z m909 -2271 c127 -43 233 -140 293 -266 33 -69 37 -87
41 -178 7 -161 -34 -270 -143 -378 -191 -192 -488 -195 -689 -8 -163 153 -203
397 -98 594 39 74 145 176 217 210 125 59 258 68 379 26z"/>
</g>
</svg>
