<?xml version="1.0" encoding="UTF-8" standalone="no" ?>
<!DOCTYPE svg PUBLIC "-//W3C//DTD SVG 1.1//EN" "http://www.w3.org/Graphics/SVG/1.1/DTD/svg11.dtd">
<svg xmlns="http://www.w3.org/2000/svg" xmlns:xlink="http://www.w3.org/1999/xlink" version="1.1" width="500" height="500" viewBox="0 0 500 500" xml:space="preserve">
<desc>Created with Fabric.js 5.3.0</desc>
<defs>
</defs>
<g transform="matrix(0.6296032642 0 0 0.6461306678 184.6110766323 740.539799077)" id="u3UQoH2uNBxcGr9jexwxu"  >
<path style="stroke:white;stroke-width: 1; stroke-dasharray: none; stroke-linecap: butt; stroke-dashoffset: 0; stroke-linejoin: miter; stroke-miterlimit: 4; stroke: white;fill-rule: nonzero; opacity: 1;filter: url(#SVGID_167);"  transform=" translate(0, 0)" d="M 0.02598 191.95 C 141.42598 191.95 256.02598 98.85 256.02598 -16.05000000000001 C 256.02598 -130.95000000000002 141.42598 -224.05 0.02598000000000411 -224.05 C -141.37402 -224.05 -255.97402 -130.95000000000002 -255.97402 -16.05000000000001 C -255.97402 29.04999999999999 -238.27402 70.74999999999999 -208.27402 104.85 C -210.17402 129.35 -219.67402 151.14999999999998 -229.67402 167.75 C -235.17402 176.95 -240.77402 184.35 -244.87402 189.35 C -246.97402 191.85 -248.57402 193.75 -249.77402 195.04999999999998 C -250.37402 195.64999999999998 -250.77402 196.14999999999998 -251.07402000000002 196.45 L -251.37402000000003 196.75 C -255.97402000000002 201.35 -257.27402 208.15 -254.77402000000004 214.15 C -252.27402000000004 220.15 -246.47402000000002 224.05 -239.97402000000002 224.05 C -211.27402000000004 224.05 -182.37402000000003 215.15 -158.37402000000003 204.75 C -135.47402000000002 194.75 -115.97402000000002 182.85 -104.07402000000003 174.15 C -72.27402000000004 185.65 -37.07402000000003 192.05 0.02597999999996148 192.05 z M -53.07402 -79.25 C -46.57402 -81.45 -39.37402 -79.15 -35.17402 -73.65 L 0.02598000000000411 -26.750000000000007 L 35.22598000000001 -73.65 C 39.32598000000001 -79.15 46.525980000000004 -81.45 53.125980000000006 -79.25 C 59.72598000000001 -77.05 64.02598 -70.95 64.02598 -64.05 L 64.02598 31.950000000000003 C 64.02598 40.75 56.82598 47.95 48.025980000000004 47.95 C 39.22598000000001 47.95 32.025980000000004 40.75 32.025980000000004 31.950000000000003 L 32.025980000000004 -16.049999999999997 L 12.825980000000005 9.550000000000004 C 9.825980000000005 13.550000000000004 5.025980000000005 15.950000000000005 0.02598000000000411 15.950000000000005 C -4.974019999999996 15.950000000000005 -9.774019999999997 13.550000000000004 -12.774019999999997 9.550000000000004 L -31.974019999999996 -16.049999999999997 L -31.974019999999996 31.950000000000003 C -31.974019999999996 40.75 -39.17402 47.95 -47.974019999999996 47.95 C -56.77401999999999 47.95 -63.974019999999996 40.75 -63.974019999999996 31.950000000000003 L -63.974019999999996 -64.05 C -63.974019999999996 -70.95 -59.57402 -77.05 -53.07402 -79.25 z M 120.02598 -41.25 L 120.02598 -40.85 C 120.12598 -40.75 120.62598 -40.050000000000004 122.22598 -39.15 C 126.12598000000001 -36.85 131.82598000000002 -35.05 140.52598 -32.35 L 141.12598 -32.15 C 148.52598 -29.95 158.42598 -26.95 166.32598 -21.95 C 175.42597999999998 -16.25 183.72598 -6.75 183.92597999999998 7.949999999999999 C 184.12597999999997 22.95 176.32598 33.95 166.12597999999997 40.25 C 156.62597999999997 46.15 145.22597999999996 48.15 135.42597999999998 47.85 C 123.22597999999998 47.45 111.72597999999998 43.45 102.82597999999999 40.45 C 101.42597999999998 39.95 100.12597999999998 39.550000000000004 98.82597999999999 39.050000000000004 C 90.42597999999998 36.25000000000001 85.92597999999998 27.150000000000006 88.72597999999999 18.850000000000005 C 91.52597999999999 10.550000000000004 100.62598 5.950000000000005 108.92598 8.750000000000005 C 110.62598 9.350000000000005 112.22597999999999 9.850000000000005 113.82598 10.350000000000005 C 122.92598 13.450000000000005 129.42598 15.650000000000006 136.42598 15.850000000000005 C 141.72598000000002 16.050000000000004 146.42598 14.850000000000005 149.22598000000002 13.050000000000004 C 150.42598 12.250000000000004 151.02598000000003 11.550000000000004 151.32598000000002 11.050000000000004 C 151.52598 10.650000000000004 151.92598 9.850000000000005 151.92598 8.350000000000005 L 151.92598 8.150000000000006 C 151.92598 7.4500000000000055 151.92598 6.750000000000005 149.22598000000002 5.050000000000006 C 145.42598 2.650000000000006 139.62598000000003 0.7500000000000062 131.22598000000002 -1.8499999999999943 L 130.02598000000003 -2.2499999999999942 C 122.82598000000003 -4.449999999999994 113.32598000000003 -7.249999999999995 105.72598000000004 -11.849999999999994 C 96.72598000000004 -17.249999999999993 88.02598000000003 -26.549999999999994 88.02598000000003 -41.24999999999999 C 87.92598000000004 -56.44999999999999 96.62598000000003 -66.94999999999999 106.52598000000003 -72.85 C 115.92598000000004 -78.35 127.02598000000003 -80.35 136.22598000000002 -80.25 C 146.22598000000002 -80.05 155.92598 -77.95 164.12598000000003 -75.85 C 172.62598000000003 -73.55 177.72598000000002 -64.85 175.42598000000004 -56.24999999999999 C 173.12598000000003 -47.64999999999999 164.42598000000004 -42.64999999999999 155.82598000000004 -44.94999999999999 C 148.52598000000003 -46.84999999999999 141.72598000000005 -48.249999999999986 135.72598000000005 -48.34999999999999 C 130.82598000000004 -48.44999999999999 125.92598000000005 -47.249999999999986 122.82598000000004 -45.44999999999999 C 121.42598000000004 -44.64999999999999 120.72598000000005 -43.84999999999999 120.42598000000004 -43.44999999999999 C 120.22598000000004 -43.14999999999999 120.02598000000003 -42.64999999999999 120.02598000000003 -41.54999999999999 z M -151.97402 -41.25 L -151.97402 -40.85 C -151.87402 -40.75 -151.37402 -40.050000000000004 -149.77402 -39.15 C -145.87402 -36.85 -140.17402 -35.05 -131.47402 -32.35 L -130.87402 -32.15 C -123.47402 -29.95 -113.57402 -26.95 -105.67402 -21.95 C -96.57402 -16.25 -88.27402000000001 -6.75 -88.07401999999999 7.949999999999999 C -87.87401999999999 22.95 -95.67401999999998 33.95 -105.87401999999999 40.25 C -115.37401999999999 46.15 -126.77401999999998 48.15 -136.57402 47.85 C -148.87402 47.45 -160.77401999999998 43.35 -169.77402 40.25 C -171.07402000000002 39.85 -172.27402 39.45 -173.37402 39.05 C -181.77402 36.25 -186.27402 27.15 -183.47402 18.849999999999998 C -180.67401999999998 10.549999999999997 -171.57402 5.9499999999999975 -163.27402 8.749999999999998 C -161.87402 9.249999999999998 -160.47402 9.649999999999999 -159.17402 10.149999999999999 C -149.67402 13.349999999999998 -142.67402 15.749999999999998 -135.47402000000002 15.95 C -130.17402 16.15 -125.47402000000002 14.95 -122.67402000000003 13.149999999999999 C -121.47402000000002 12.349999999999998 -120.87402000000003 11.649999999999999 -120.57402000000003 11.149999999999999 C -120.37402000000003 10.749999999999998 -119.97402000000004 9.95 -119.97402000000004 8.45 L -119.97402000000004 8.25 C -119.97402000000004 7.55 -119.97402000000004 6.85 -122.67402000000004 5.15 C -126.47402000000004 2.7500000000000004 -132.27402000000004 0.8500000000000005 -140.67402000000004 -1.75 L -141.87402000000003 -2.15 C -149.07402000000002 -4.35 -158.57402000000002 -7.15 -166.17402000000004 -11.75 C -175.17402000000004 -17.05 -183.87402000000003 -26.35 -183.97402000000005 -41.05 C -184.07402000000005 -56.25 -175.37402000000006 -66.75 -165.47402000000005 -72.65 C -156.07402000000005 -78.15 -144.97402000000005 -80.15 -135.77402000000006 -80.05000000000001 C -126.27402000000006 -79.95000000000002 -113.57402000000006 -77.95000000000002 -104.67402000000007 -75.65 C -96.17402000000007 -73.35000000000001 -91.07402000000008 -64.65 -93.37402000000007 -56.050000000000004 C -95.67402000000007 -47.45 -104.37402000000007 -42.45 -112.97402000000008 -44.75 C -119.57402000000008 -46.55 -129.7740200000001 -48.05 -136.2740200000001 -48.15 C -141.1740200000001 -48.25 -146.0740200000001 -47.05 -149.1740200000001 -45.25 C -150.5740200000001 -44.45 -151.2740200000001 -43.65 -151.5740200000001 -43.25 C -151.7740200000001 -42.95 -151.9740200000001 -42.45 -151.9740200000001 -41.35 z" stroke-linecap="round" />
<filter id="SVGID_167" y="-24.0169605%" height="148.033921%" x="-23.5152683%" width="147.0305366%" >
	<feGaussianBlur in="SourceAlpha" stdDeviation="7"></feGaussianBlur>
	<feOffset dx="4" dy="4" result="oBlur" ></feOffset>
	<feFlood flood-color="rgb(25,182,247)" flood-opacity="1"/>
	<feComposite in2="oBlur" operator="in" />
	<feMerge>
		<feMergeNode></feMergeNode>
		<feMergeNode in="SourceGraphic"></feMergeNode>
	</feMerge>
</filter>
<path style="stroke: none; stroke-width: 1; stroke-dasharray: none; stroke-linecap: butt; stroke-dashoffset: 0; stroke-linejoin: miter; stroke-miterlimit: 4; fill: rgb(24,182,246); fill-rule: nonzero; opacity: 1;"  transform=" translate(0, 0)" d="M 0.02598 191.95 C 141.42598 191.95 256.02598 98.85 256.02598 -16.05000000000001 C 256.02598 -130.95000000000002 141.42598 -224.05 0.02598000000000411 -224.05 C -141.37402 -224.05 -255.97402 -130.95000000000002 -255.97402 -16.05000000000001 C -255.97402 29.04999999999999 -238.27402 70.74999999999999 -208.27402 104.85 C -210.17402 129.35 -219.67402 151.14999999999998 -229.67402 167.75 C -235.17402 176.95 -240.77402 184.35 -244.87402 189.35 C -246.97402 191.85 -248.57402 193.75 -249.77402 195.04999999999998 C -250.37402 195.64999999999998 -250.77402 196.14999999999998 -251.07402000000002 196.45 L -251.37402000000003 196.75 C -255.97402000000002 201.35 -257.27402 208.15 -254.77402000000004 214.15 C -252.27402000000004 220.15 -246.47402000000002 224.05 -239.97402000000002 224.05 C -211.27402000000004 224.05 -182.37402000000003 215.15 -158.37402000000003 204.75 C -135.47402000000002 194.75 -115.97402000000002 182.85 -104.07402000000003 174.15 C -72.27402000000004 185.65 -37.07402000000003 192.05 0.02597999999996148 192.05 z M -53.07402 -79.25 C -46.57402 -81.45 -39.37402 -79.15 -35.17402 -73.65 L 0.02598000000000411 -26.750000000000007 L 35.22598000000001 -73.65 C 39.32598000000001 -79.15 46.525980000000004 -81.45 53.125980000000006 -79.25 C 59.72598000000001 -77.05 64.02598 -70.95 64.02598 -64.05 L 64.02598 31.950000000000003 C 64.02598 40.75 56.82598 47.95 48.025980000000004 47.95 C 39.22598000000001 47.95 32.025980000000004 40.75 32.025980000000004 31.950000000000003 L 32.025980000000004 -16.049999999999997 L 12.825980000000005 9.550000000000004 C 9.825980000000005 13.550000000000004 5.025980000000005 15.950000000000005 0.02598000000000411 15.950000000000005 C -4.974019999999996 15.950000000000005 -9.774019999999997 13.550000000000004 -12.774019999999997 9.550000000000004 L -31.974019999999996 -16.049999999999997 L -31.974019999999996 31.950000000000003 C -31.974019999999996 40.75 -39.17402 47.95 -47.974019999999996 47.95 C -56.77401999999999 47.95 -63.974019999999996 40.75 -63.974019999999996 31.950000000000003 L -63.974019999999996 -64.05 C -63.974019999999996 -70.95 -59.57402 -77.05 -53.07402 -79.25 z M 120.02598 -41.25 L 120.02598 -40.85 C 120.12598 -40.75 120.62598 -40.050000000000004 122.22598 -39.15 C 126.12598000000001 -36.85 131.82598000000002 -35.05 140.52598 -32.35 L 141.12598 -32.15 C 148.52598 -29.95 158.42598 -26.95 166.32598 -21.95 C 175.42597999999998 -16.25 183.72598 -6.75 183.92597999999998 7.949999999999999 C 184.12597999999997 22.95 176.32598 33.95 166.12597999999997 40.25 C 156.62597999999997 46.15 145.22597999999996 48.15 135.42597999999998 47.85 C 123.22597999999998 47.45 111.72597999999998 43.45 102.82597999999999 40.45 C 101.42597999999998 39.95 100.12597999999998 39.550000000000004 98.82597999999999 39.050000000000004 C 90.42597999999998 36.25000000000001 85.92597999999998 27.150000000000006 88.72597999999999 18.850000000000005 C 91.52597999999999 10.550000000000004 100.62598 5.950000000000005 108.92598 8.750000000000005 C 110.62598 9.350000000000005 112.22597999999999 9.850000000000005 113.82598 10.350000000000005 C 122.92598 13.450000000000005 129.42598 15.650000000000006 136.42598 15.850000000000005 C 141.72598000000002 16.050000000000004 146.42598 14.850000000000005 149.22598000000002 13.050000000000004 C 150.42598 12.250000000000004 151.02598000000003 11.550000000000004 151.32598000000002 11.050000000000004 C 151.52598 10.650000000000004 151.92598 9.850000000000005 151.92598 8.350000000000005 L 151.92598 8.150000000000006 C 151.92598 7.4500000000000055 151.92598 6.750000000000005 149.22598000000002 5.050000000000006 C 145.42598 2.650000000000006 139.62598000000003 0.7500000000000062 131.22598000000002 -1.8499999999999943 L 130.02598000000003 -2.2499999999999942 C 122.82598000000003 -4.449999999999994 113.32598000000003 -7.249999999999995 105.72598000000004 -11.849999999999994 C 96.72598000000004 -17.249999999999993 88.02598000000003 -26.549999999999994 88.02598000000003 -41.24999999999999 C 87.92598000000004 -56.44999999999999 96.62598000000003 -66.94999999999999 106.52598000000003 -72.85 C 115.92598000000004 -78.35 127.02598000000003 -80.35 136.22598000000002 -80.25 C 146.22598000000002 -80.05 155.92598 -77.95 164.12598000000003 -75.85 C 172.62598000000003 -73.55 177.72598000000002 -64.85 175.42598000000004 -56.24999999999999 C 173.12598000000003 -47.64999999999999 164.42598000000004 -42.64999999999999 155.82598000000004 -44.94999999999999 C 148.52598000000003 -46.84999999999999 141.72598000000005 -48.249999999999986 135.72598000000005 -48.34999999999999 C 130.82598000000004 -48.44999999999999 125.92598000000005 -47.249999999999986 122.82598000000004 -45.44999999999999 C 121.42598000000004 -44.64999999999999 120.72598000000005 -43.84999999999999 120.42598000000004 -43.44999999999999 C 120.22598000000004 -43.14999999999999 120.02598000000003 -42.64999999999999 120.02598000000003 -41.54999999999999 z M -151.97402 -41.25 L -151.97402 -40.85 C -151.87402 -40.75 -151.37402 -40.050000000000004 -149.77402 -39.15 C -145.87402 -36.85 -140.17402 -35.05 -131.47402 -32.35 L -130.87402 -32.15 C -123.47402 -29.95 -113.57402 -26.95 -105.67402 -21.95 C -96.57402 -16.25 -88.27402000000001 -6.75 -88.07401999999999 7.949999999999999 C -87.87401999999999 22.95 -95.67401999999998 33.95 -105.87401999999999 40.25 C -115.37401999999999 46.15 -126.77401999999998 48.15 -136.57402 47.85 C -148.87402 47.45 -160.77401999999998 43.35 -169.77402 40.25 C -171.07402000000002 39.85 -172.27402 39.45 -173.37402 39.05 C -181.77402 36.25 -186.27402 27.15 -183.47402 18.849999999999998 C -180.67401999999998 10.549999999999997 -171.57402 5.9499999999999975 -163.27402 8.749999999999998 C -161.87402 9.249999999999998 -160.47402 9.649999999999999 -159.17402 10.149999999999999 C -149.67402 13.349999999999998 -142.67402 15.749999999999998 -135.47402000000002 15.95 C -130.17402 16.15 -125.47402000000002 14.95 -122.67402000000003 13.149999999999999 C -121.47402000000002 12.349999999999998 -120.87402000000003 11.649999999999999 -120.57402000000003 11.149999999999999 C -120.37402000000003 10.749999999999998 -119.97402000000004 9.95 -119.97402000000004 8.45 L -119.97402000000004 8.25 C -119.97402000000004 7.55 -119.97402000000004 6.85 -122.67402000000004 5.15 C -126.47402000000004 2.7500000000000004 -132.27402000000004 0.8500000000000005 -140.67402000000004 -1.75 L -141.87402000000003 -2.15 C -149.07402000000002 -4.35 -158.57402000000002 -7.15 -166.17402000000004 -11.75 C -175.17402000000004 -17.05 -183.87402000000003 -26.35 -183.97402000000005 -41.05 C -184.07402000000005 -56.25 -175.37402000000006 -66.75 -165.47402000000005 -72.65 C -156.07402000000005 -78.15 -144.97402000000005 -80.15 -135.77402000000006 -80.05000000000001 C -126.27402000000006 -79.95000000000002 -113.57402000000006 -77.95000000000002 -104.67402000000007 -75.65 C -96.17402000000007 -73.35000000000001 -91.07402000000008 -64.65 -93.37402000000007 -56.050000000000004 C -95.67402000000007 -47.45 -104.37402000000007 -42.45 -112.97402000000008 -44.75 C -119.57402000000008 -46.55 -129.7740200000001 -48.05 -136.2740200000001 -48.15 C -141.1740200000001 -48.25 -146.0740200000001 -47.05 -149.1740200000001 -45.25 C -150.5740200000001 -44.45 -151.2740200000001 -43.65 -151.5740200000001 -43.25 C -151.7740200000001 -42.95 -151.9740200000001 -42.45 -151.9740200000001 -41.35 z" stroke-linecap="round" />
</g>
<g transform="matrix(0.711968643 0 0 0.7306581794 218.4290167003 197.5204518027)" id="4BMUZz9v8fAD_PvOFjVcT"  >
<path style="stroke:white;stroke-width: 1; stroke-dasharray: none; stroke-linecap: butt; stroke-dashoffset: 0; stroke-linejoin: miter; stroke-miterlimit: 4; stroke: white;fill-rule: nonzero; opacity: 1;filter: url(#SVGID_149);"  transform=" translate(0, 0)" d="M 0.02598 191.95 C 141.42598 191.95 256.02598 98.85 256.02598 -16.05000000000001 C 256.02598 -130.95000000000002 141.42598 -224.05 0.02598000000000411 -224.05 C -141.37402 -224.05 -255.97402 -130.95000000000002 -255.97402 -16.05000000000001 C -255.97402 29.04999999999999 -238.27402 70.74999999999999 -208.27402 104.85 C -210.17402 129.35 -219.67402 151.14999999999998 -229.67402 167.75 C -235.17402 176.95 -240.77402 184.35 -244.87402 189.35 C -246.97402 191.85 -248.57402 193.75 -249.77402 195.04999999999998 C -250.37402 195.64999999999998 -250.77402 196.14999999999998 -251.07402000000002 196.45 L -251.37402000000003 196.75 C -255.97402000000002 201.35 -257.27402 208.15 -254.77402000000004 214.15 C -252.27402000000004 220.15 -246.47402000000002 224.05 -239.97402000000002 224.05 C -211.27402000000004 224.05 -182.37402000000003 215.15 -158.37402000000003 204.75 C -135.47402000000002 194.75 -115.97402000000002 182.85 -104.07402000000003 174.15 C -72.27402000000004 185.65 -37.07402000000003 192.05 0.02597999999996148 192.05 z" stroke-linecap="round" />
<filter id="SVGID_149" y="-24.0169605%" height="148.033921%" x="-23.5152683%" width="147.0305366%" >
	<feGaussianBlur in="SourceAlpha" stdDeviation="7"></feGaussianBlur>
	<feOffset dx="4" dy="4" result="oBlur" ></feOffset>
	<feFlood flood-color="rgb(25,182,247)" flood-opacity="1"/>
	<feComposite in2="oBlur" operator="in" />
	<feMerge>
		<feMergeNode></feMergeNode>
		<feMergeNode in="SourceGraphic"></feMergeNode>
	</feMerge>
</filter>
<path style="stroke: none; stroke-width: 1; stroke-dasharray: none; stroke-linecap: butt; stroke-dashoffset: 0; stroke-linejoin: miter; stroke-miterlimit: 4; fill: rgb(24,182,246); fill-rule: nonzero; opacity: 1;"  transform=" translate(0, 0)" d="M 0.02598 191.95 C 141.42598 191.95 256.02598 98.85 256.02598 -16.05000000000001 C 256.02598 -130.95000000000002 141.42598 -224.05 0.02598000000000411 -224.05 C -141.37402 -224.05 -255.97402 -130.95000000000002 -255.97402 -16.05000000000001 C -255.97402 29.04999999999999 -238.27402 70.74999999999999 -208.27402 104.85 C -210.17402 129.35 -219.67402 151.14999999999998 -229.67402 167.75 C -235.17402 176.95 -240.77402 184.35 -244.87402 189.35 C -246.97402 191.85 -248.57402 193.75 -249.77402 195.04999999999998 C -250.37402 195.64999999999998 -250.77402 196.14999999999998 -251.07402000000002 196.45 L -251.37402000000003 196.75 C -255.97402000000002 201.35 -257.27402 208.15 -254.77402000000004 214.15 C -252.27402000000004 220.15 -246.47402000000002 224.05 -239.97402000000002 224.05 C -211.27402000000004 224.05 -182.37402000000003 215.15 -158.37402000000003 204.75 C -135.47402000000002 194.75 -115.97402000000002 182.85 -104.07402000000003 174.15 C -72.27402000000004 185.65 -37.07402000000003 192.05 0.02597999999996148 192.05 z" stroke-linecap="round" />
</g>
<g transform="matrix(21.5000834193 0 0 21.5000834193 346.1206690342 321.3258690741)" id="kpdHCOOjyiOYdtj9GS7F1"  >
<path style="stroke:white;stroke-width: 1; stroke-dasharray: none; stroke-linecap: butt; stroke-dashoffset: 0; stroke-linejoin: miter; stroke-miterlimit: 4; stroke: white;fill-rule: nonzero; opacity: 1;filter: url(#SVGID_121);"  transform=" translate(0, 0)" d="M 1.156 6.55156 C 2.899 5.0175600000000005 6 1.8835600000000001 6 -0.9924399999999993 C 6 -4.306149999999999 3.31371 -6.992439999999999 0 -6.992439999999999 C -3.31371 -6.992439999999999 -6 -4.306149999999999 -6 -0.9924399999999993 C -6 1.8835600000000006 -2.9 5.0175600000000005 -1.1559999999999997 6.55156 C -0.49741999999999964 7.139390000000001 0.4974200000000002 7.139390000000001 1.1560000000000001 6.55156 z" stroke-linecap="round" />
<filter id="SVGID_121" y="-27.15058454%" height="154.30116908%" x="-28.333333330000002%" width="156.66666666%" >
	<feGaussianBlur in="SourceAlpha" stdDeviation="0.5"></feGaussianBlur>
	<feOffset dx="0" dy="0" result="oBlur" ></feOffset>
	<feFlood flood-color="rgb(173,127,245)" flood-opacity="1"/>
	<feComposite in2="oBlur" operator="in" />
	<feMerge>
		<feMergeNode></feMergeNode>
		<feMergeNode in="SourceGraphic"></feMergeNode>
	</feMerge>
</filter>
<path style="stroke: none; stroke-width: 1; stroke-dasharray: none; stroke-linecap: butt; stroke-dashoffset: 0; stroke-linejoin: miter; stroke-miterlimit: 4; fill: rgb(172,126,244); fill-rule: nonzero; opacity: 1;"  transform=" translate(0, 0)" d="M 1.156 6.55156 C 2.899 5.0175600000000005 6 1.8835600000000001 6 -0.9924399999999993 C 6 -4.306149999999999 3.31371 -6.992439999999999 0 -6.992439999999999 C -3.31371 -6.992439999999999 -6 -4.306149999999999 -6 -0.9924399999999993 C -6 1.8835600000000006 -2.9 5.0175600000000005 -1.1559999999999997 6.55156 C -0.49741999999999964 7.139390000000001 0.4974200000000002 7.139390000000001 1.1560000000000001 6.55156 z" stroke-linecap="round" />
</g>
<g transform="matrix(19.0128074241 0 0 19.0128074241 595.3391616153 705.24568143)" id="t4m-SmUU-80ZThLFNIvUy"  >
<path style="stroke:white;stroke-width: 1; stroke-dasharray: none; stroke-linecap: butt; stroke-dashoffset: 0; stroke-linejoin: miter; stroke-miterlimit: 4; stroke: white;fill-rule: nonzero; opacity: 1;filter: url(#SVGID_163);"  transform=" translate(0, 0)" d="M 1.156 6.55156 C 2.899 5.0175600000000005 6 1.8835600000000001 6 -0.9924399999999993 C 6 -4.306149999999999 3.31371 -6.992439999999999 0 -6.992439999999999 C -3.31371 -6.992439999999999 -6 -4.306149999999999 -6 -0.9924399999999993 C -6 1.8835600000000006 -2.9 5.0175600000000005 -1.1559999999999997 6.55156 C -0.49741999999999964 7.139390000000001 0.4974200000000002 7.139390000000001 1.1560000000000001 6.55156 z M -2 -0.99244 C -2 -2.09701 -1.10457 -2.99244 0 -2.99244 C 1.10457 -2.99244 2 -2.09701 2 -0.9924400000000002 C 2 0.11212999999999984 1.10457 1.0075599999999998 0 1.0075599999999998 C -1.10457 1.0075599999999998 -2 0.11212999999999984 -2 -0.9924400000000002 z" stroke-linecap="round" />
<filter id="SVGID_163" y="-27.15058454%" height="154.30116908%" x="-28.333333330000002%" width="156.66666666%" >
	<feGaussianBlur in="SourceAlpha" stdDeviation="0.5"></feGaussianBlur>
	<feOffset dx="0" dy="0" result="oBlur" ></feOffset>
	<feFlood flood-color="rgb(173,127,245)" flood-opacity="1"/>
	<feComposite in2="oBlur" operator="in" />
	<feMerge>
		<feMergeNode></feMergeNode>
		<feMergeNode in="SourceGraphic"></feMergeNode>
	</feMerge>
</filter>
<path style="stroke: none; stroke-width: 1; stroke-dasharray: none; stroke-linecap: butt; stroke-dashoffset: 0; stroke-linejoin: miter; stroke-miterlimit: 4; fill: rgb(172,126,244); fill-rule: nonzero; opacity: 1;"  transform=" translate(0, 0)" d="M 1.156 6.55156 C 2.899 5.0175600000000005 6 1.8835600000000001 6 -0.9924399999999993 C 6 -4.306149999999999 3.31371 -6.992439999999999 0 -6.992439999999999 C -3.31371 -6.992439999999999 -6 -4.306149999999999 -6 -0.9924399999999993 C -6 1.8835600000000006 -2.9 5.0175600000000005 -1.1559999999999997 6.55156 C -0.49741999999999964 7.139390000000001 0.4974200000000002 7.139390000000001 1.1560000000000001 6.55156 z M -2 -0.99244 C -2 -2.09701 -1.10457 -2.99244 0 -2.99244 C 1.10457 -2.99244 2 -2.09701 2 -0.9924400000000002 C 2 0.11212999999999984 1.10457 1.0075599999999998 0 1.0075599999999998 C -1.10457 1.0075599999999998 -2 0.11212999999999984 -2 -0.9924400000000002 z" stroke-linecap="round" />
</g>
<g transform="matrix(0.7227691046 0 0 0.7227691046 346.1206690344 301.3139449401)" id="P0l015qkuL-O1PiJeBSLX"  >
<path style="stroke: rgb(237,48,108); stroke-width: 0; stroke-dasharray: none; stroke-linecap: butt; stroke-dashoffset: 0; stroke-linejoin: miter; stroke-miterlimit: 4; fill: rgb(255,255,255); fill-rule: nonzero; opacity: 1;"  transform=" translate(0, 0)" d="M 0 -58.82353 C 32.47059 -58.82353 58.82353 -32.47059 58.82353 0 C 58.82353 32.47059 32.47059 58.82353 0 58.82353 C -32.47059 58.82353 -58.82353 32.47059 -58.82353 0 C -58.82353 -32.47059 -32.47059 -58.82353 0 -58.82353 z" stroke-linecap="round" />
</g>
</svg>