<?xml version="1.0" encoding="UTF-8" standalone="no" ?>
<!DOCTYPE svg PUBLIC "-//W3C//DTD SVG 1.1//EN" "http://www.w3.org/Graphics/SVG/1.1/DTD/svg11.dtd">
<svg xmlns="http://www.w3.org/2000/svg" xmlns:xlink="http://www.w3.org/1999/xlink" version="1.1" width="500" height="500" viewBox="0 0 500 500" xml:space="preserve">
<desc>Created with Fabric.js 5.3.0</desc>
<defs>
</defs>
<g transform="matrix(1.1554319978 0 0 1.1564404242 258.0155497846 250)" id="WLc0H328f8eEbJ1KD-tqt"  >
<radialGradient id="SVGID_779_788" gradientUnits="userSpaceOnUse" gradientTransform="matrix(1 0 0 1 -254.28572 -259.52904)"  cx="254.28571581564637" cy="259.5290398926787" r="310.33566499842914" fx="254.28571581564637" fy="259.5290398926787">
<stop offset="0%" style="stop-color:#31A8F7;stop-opacity: 1"/>
<stop offset="100%" style="stop-color:#151934;stop-opacity: 1"/>
</radialGradient>
<path style="stroke: rgb(255,255,255); stroke-width: 0; stroke-dasharray: none; stroke-linecap: butt; stroke-dashoffset: 0; stroke-linejoin: miter; stroke-miterlimit: 4; fill: url(#SVGID_779_788); fill-rule: nonzero; opacity: 1;"  transform=" translate(0.000005, 0.0000012599)" d="M -254.28572 -259.52904 L 254.28571000000002 -259.52904 C 254.28571000000002 -259.52904 254.28571000000002 46.66143999999997 254.28571000000002 173.80428999999998 C 254.28571000000002 300.94714999999997 254.28571000000002 249.04238999999998 254.28571000000002 249.04238999999998 L -254.28572 249.04238999999998 z" stroke-linecap="round" />
</g>
<g transform="matrix(0.6804490312 0 0 0.6983111619 212.7162716437 198.3072517727)" id="YPGYfRXTHyNflyqCdyuDe"  >
<path style="stroke:white;stroke-width: 12; stroke-dasharray: none; stroke-linecap: butt; stroke-dashoffset: 0; stroke-linejoin: miter; stroke-miterlimit: 4; stroke: white;fill-rule: nonzero; opacity: 1;filter: url(#SVGID_789);"  transform=" translate(-0.0000030985, 0)" d="M 0.02598 191.95 C 141.42598 191.95 256.02598 98.85 256.02598 -16.05000000000001 C 256.02598 -130.95000000000002 141.42598 -224.05 0.02598000000000411 -224.05 C -141.37402 -224.05 -255.97402 -130.95000000000002 -255.97402 -16.05000000000001 C -255.97402 29.04999999999999 -238.27402 70.74999999999999 -208.27402 104.85 C -210.17402 129.35 -219.67402 151.14999999999998 -229.67402 167.75 C -235.17402 176.95 -240.77402 184.35 -244.87402 189.35 C -246.97402 191.85 -248.57402 193.75 -249.77402 195.04999999999998 C -250.37402 195.64999999999998 -250.77402 196.14999999999998 -251.07402000000002 196.45 L -251.37402000000003 196.75 C -255.97402000000002 201.35 -257.27402 208.15 -254.77402000000004 214.15 C -252.27402000000004 220.15 -246.47402000000002 224.05 -239.97402000000002 224.05 C -211.27402000000004 224.05 -182.37402000000003 215.15 -158.37402000000003 204.75 C -135.47402000000002 194.75 -115.97402000000002 182.85 -104.07402000000003 174.15 C -72.27402000000004 185.65 -37.07402000000003 192.05 0.02597999999996148 192.05 z M -53.07402 -79.25 C -46.57402 -81.45 -39.37402 -79.15 -35.17402 -73.65 L 0.02598000000000411 -26.750000000000007 L 35.22598000000001 -73.65 C 39.32598000000001 -79.15 46.525980000000004 -81.45 53.125980000000006 -79.25 C 59.72598000000001 -77.05 64.02598 -70.95 64.02598 -64.05 L 64.02598 31.950000000000003 C 64.02598 40.75 56.82598 47.95 48.025980000000004 47.95 C 39.22598000000001 47.95 32.025980000000004 40.75 32.025980000000004 31.950000000000003 L 32.025980000000004 -16.049999999999997 L 12.825980000000005 9.550000000000004 C 9.825980000000005 13.550000000000004 5.025980000000005 15.950000000000005 0.02598000000000411 15.950000000000005 C -4.974019999999996 15.950000000000005 -9.774019999999997 13.550000000000004 -12.774019999999997 9.550000000000004 L -31.974019999999996 -16.049999999999997 L -31.974019999999996 31.950000000000003 C -31.974019999999996 40.75 -39.17402 47.95 -47.974019999999996 47.95 C -56.77401999999999 47.95 -63.974019999999996 40.75 -63.974019999999996 31.950000000000003 L -63.974019999999996 -64.05 C -63.974019999999996 -70.95 -59.57402 -77.05 -53.07402 -79.25 z M 120.02598 -41.25 L 120.02598 -40.85 C 120.12598 -40.75 120.62598 -40.050000000000004 122.22598 -39.15 C 126.12598000000001 -36.85 131.82598000000002 -35.05 140.52598 -32.35 L 141.12598 -32.15 C 148.52598 -29.95 158.42598 -26.95 166.32598 -21.95 C 175.42597999999998 -16.25 183.72598 -6.75 183.92597999999998 7.949999999999999 C 184.12597999999997 22.95 176.32598 33.95 166.12597999999997 40.25 C 156.62597999999997 46.15 145.22597999999996 48.15 135.42597999999998 47.85 C 123.22597999999998 47.45 111.72597999999998 43.45 102.82597999999999 40.45 C 101.42597999999998 39.95 100.12597999999998 39.550000000000004 98.82597999999999 39.050000000000004 C 90.42597999999998 36.25000000000001 85.92597999999998 27.150000000000006 88.72597999999999 18.850000000000005 C 91.52597999999999 10.550000000000004 100.62598 5.950000000000005 108.92598 8.750000000000005 C 110.62598 9.350000000000005 112.22597999999999 9.850000000000005 113.82598 10.350000000000005 C 122.92598 13.450000000000005 129.42598 15.650000000000006 136.42598 15.850000000000005 C 141.72598000000002 16.050000000000004 146.42598 14.850000000000005 149.22598000000002 13.050000000000004 C 150.42598 12.250000000000004 151.02598000000003 11.550000000000004 151.32598000000002 11.050000000000004 C 151.52598 10.650000000000004 151.92598 9.850000000000005 151.92598 8.350000000000005 L 151.92598 8.150000000000006 C 151.92598 7.4500000000000055 151.92598 6.750000000000005 149.22598000000002 5.050000000000006 C 145.42598 2.650000000000006 139.62598000000003 0.7500000000000062 131.22598000000002 -1.8499999999999943 L 130.02598000000003 -2.2499999999999942 C 122.82598000000003 -4.449999999999994 113.32598000000003 -7.249999999999995 105.72598000000004 -11.849999999999994 C 96.72598000000004 -17.249999999999993 88.02598000000003 -26.549999999999994 88.02598000000003 -41.24999999999999 C 87.92598000000004 -56.44999999999999 96.62598000000003 -66.94999999999999 106.52598000000003 -72.85 C 115.92598000000004 -78.35 127.02598000000003 -80.35 136.22598000000002 -80.25 C 146.22598000000002 -80.05 155.92598 -77.95 164.12598000000003 -75.85 C 172.62598000000003 -73.55 177.72598000000002 -64.85 175.42598000000004 -56.24999999999999 C 173.12598000000003 -47.64999999999999 164.42598000000004 -42.64999999999999 155.82598000000004 -44.94999999999999 C 148.52598000000003 -46.84999999999999 141.72598000000005 -48.249999999999986 135.72598000000005 -48.34999999999999 C 130.82598000000004 -48.44999999999999 125.92598000000005 -47.249999999999986 122.82598000000004 -45.44999999999999 C 121.42598000000004 -44.64999999999999 120.72598000000005 -43.84999999999999 120.42598000000004 -43.44999999999999 C 120.22598000000004 -43.14999999999999 120.02598000000003 -42.64999999999999 120.02598000000003 -41.54999999999999 z M -151.97402 -41.25 L -151.97402 -40.85 C -151.87402 -40.75 -151.37402 -40.050000000000004 -149.77402 -39.15 C -145.87402 -36.85 -140.17402 -35.05 -131.47402 -32.35 L -130.87402 -32.15 C -123.47402 -29.95 -113.57402 -26.95 -105.67402 -21.95 C -96.57402 -16.25 -88.27402000000001 -6.75 -88.07401999999999 7.949999999999999 C -87.87401999999999 22.95 -95.67401999999998 33.95 -105.87401999999999 40.25 C -115.37401999999999 46.15 -126.77401999999998 48.15 -136.57402 47.85 C -148.87402 47.45 -160.77401999999998 43.35 -169.77402 40.25 C -171.07402000000002 39.85 -172.27402 39.45 -173.37402 39.05 C -181.77402 36.25 -186.27402 27.15 -183.47402 18.849999999999998 C -180.67401999999998 10.549999999999997 -171.57402 5.9499999999999975 -163.27402 8.749999999999998 C -161.87402 9.249999999999998 -160.47402 9.649999999999999 -159.17402 10.149999999999999 C -149.67402 13.349999999999998 -142.67402 15.749999999999998 -135.47402000000002 15.95 C -130.17402 16.15 -125.47402000000002 14.95 -122.67402000000003 13.149999999999999 C -121.47402000000002 12.349999999999998 -120.87402000000003 11.649999999999999 -120.57402000000003 11.149999999999999 C -120.37402000000003 10.749999999999998 -119.97402000000004 9.95 -119.97402000000004 8.45 L -119.97402000000004 8.25 C -119.97402000000004 7.55 -119.97402000000004 6.85 -122.67402000000004 5.15 C -126.47402000000004 2.7500000000000004 -132.27402000000004 0.8500000000000005 -140.67402000000004 -1.75 L -141.87402000000003 -2.15 C -149.07402000000002 -4.35 -158.57402000000002 -7.15 -166.17402000000004 -11.75 C -175.17402000000004 -17.05 -183.87402000000003 -26.35 -183.97402000000005 -41.05 C -184.07402000000005 -56.25 -175.37402000000006 -66.75 -165.47402000000005 -72.65 C -156.07402000000005 -78.15 -144.97402000000005 -80.15 -135.77402000000006 -80.05000000000001 C -126.27402000000006 -79.95000000000002 -113.57402000000006 -77.95000000000002 -104.67402000000007 -75.65 C -96.17402000000007 -73.35000000000001 -91.07402000000008 -64.65 -93.37402000000007 -56.050000000000004 C -95.67402000000007 -47.45 -104.37402000000007 -42.45 -112.97402000000008 -44.75 C -119.57402000000008 -46.55 -129.7740200000001 -48.05 -136.2740200000001 -48.15 C -141.1740200000001 -48.25 -146.0740200000001 -47.05 -149.1740200000001 -45.25 C -150.5740200000001 -44.45 -151.2740200000001 -43.65 -151.5740200000001 -43.25 C -151.7740200000001 -42.95 -151.9740200000001 -42.45 -151.9740200000001 -41.35 z" stroke-linecap="round" />
<filter id="SVGID_789" y="-23.12430261%" height="146.24860522%" x="-22.73409756%" width="145.46819512%" >
	<feGaussianBlur in="SourceAlpha" stdDeviation="7"></feGaussianBlur>
	<feOffset dx="0" dy="0" result="oBlur" ></feOffset>
	<feFlood flood-color="rgb(25,182,247)" flood-opacity="1"/>
	<feComposite in2="oBlur" operator="in" />
	<feMerge>
		<feMergeNode></feMergeNode>
		<feMergeNode in="SourceGraphic"></feMergeNode>
	</feMerge>
</filter>
<radialGradient id="SVGID_790" gradientUnits="userSpaceOnUse" gradientTransform="matrix(1 0 0 1 -256.025973803 -224.05)"  cx="256.02597690147763" cy="224.04999999999995" r="256.02597690147763" fx="256.02597690147763" fy="224.04999999999995">
<stop offset="0%" style="stop-color:#18B6F6;stop-opacity: 1"/>
<stop offset="100%" style="stop-color:#006CE9;stop-opacity: 1"/>
</radialGradient>
<path style="stroke: rgb(255,255,255); stroke-width: 12; stroke-dasharray: none; stroke-linecap: butt; stroke-dashoffset: 0; stroke-linejoin: miter; stroke-miterlimit: 4; fill: url(#SVGID_790); fill-rule: nonzero; opacity: 1;"  transform=" translate(-0.0000030985, 0)" d="M 0.02598 191.95 C 141.42598 191.95 256.02598 98.85 256.02598 -16.05000000000001 C 256.02598 -130.95000000000002 141.42598 -224.05 0.02598000000000411 -224.05 C -141.37402 -224.05 -255.97402 -130.95000000000002 -255.97402 -16.05000000000001 C -255.97402 29.04999999999999 -238.27402 70.74999999999999 -208.27402 104.85 C -210.17402 129.35 -219.67402 151.14999999999998 -229.67402 167.75 C -235.17402 176.95 -240.77402 184.35 -244.87402 189.35 C -246.97402 191.85 -248.57402 193.75 -249.77402 195.04999999999998 C -250.37402 195.64999999999998 -250.77402 196.14999999999998 -251.07402000000002 196.45 L -251.37402000000003 196.75 C -255.97402000000002 201.35 -257.27402 208.15 -254.77402000000004 214.15 C -252.27402000000004 220.15 -246.47402000000002 224.05 -239.97402000000002 224.05 C -211.27402000000004 224.05 -182.37402000000003 215.15 -158.37402000000003 204.75 C -135.47402000000002 194.75 -115.97402000000002 182.85 -104.07402000000003 174.15 C -72.27402000000004 185.65 -37.07402000000003 192.05 0.02597999999996148 192.05 z M -53.07402 -79.25 C -46.57402 -81.45 -39.37402 -79.15 -35.17402 -73.65 L 0.02598000000000411 -26.750000000000007 L 35.22598000000001 -73.65 C 39.32598000000001 -79.15 46.525980000000004 -81.45 53.125980000000006 -79.25 C 59.72598000000001 -77.05 64.02598 -70.95 64.02598 -64.05 L 64.02598 31.950000000000003 C 64.02598 40.75 56.82598 47.95 48.025980000000004 47.95 C 39.22598000000001 47.95 32.025980000000004 40.75 32.025980000000004 31.950000000000003 L 32.025980000000004 -16.049999999999997 L 12.825980000000005 9.550000000000004 C 9.825980000000005 13.550000000000004 5.025980000000005 15.950000000000005 0.02598000000000411 15.950000000000005 C -4.974019999999996 15.950000000000005 -9.774019999999997 13.550000000000004 -12.774019999999997 9.550000000000004 L -31.974019999999996 -16.049999999999997 L -31.974019999999996 31.950000000000003 C -31.974019999999996 40.75 -39.17402 47.95 -47.974019999999996 47.95 C -56.77401999999999 47.95 -63.974019999999996 40.75 -63.974019999999996 31.950000000000003 L -63.974019999999996 -64.05 C -63.974019999999996 -70.95 -59.57402 -77.05 -53.07402 -79.25 z M 120.02598 -41.25 L 120.02598 -40.85 C 120.12598 -40.75 120.62598 -40.050000000000004 122.22598 -39.15 C 126.12598000000001 -36.85 131.82598000000002 -35.05 140.52598 -32.35 L 141.12598 -32.15 C 148.52598 -29.95 158.42598 -26.95 166.32598 -21.95 C 175.42597999999998 -16.25 183.72598 -6.75 183.92597999999998 7.949999999999999 C 184.12597999999997 22.95 176.32598 33.95 166.12597999999997 40.25 C 156.62597999999997 46.15 145.22597999999996 48.15 135.42597999999998 47.85 C 123.22597999999998 47.45 111.72597999999998 43.45 102.82597999999999 40.45 C 101.42597999999998 39.95 100.12597999999998 39.550000000000004 98.82597999999999 39.050000000000004 C 90.42597999999998 36.25000000000001 85.92597999999998 27.150000000000006 88.72597999999999 18.850000000000005 C 91.52597999999999 10.550000000000004 100.62598 5.950000000000005 108.92598 8.750000000000005 C 110.62598 9.350000000000005 112.22597999999999 9.850000000000005 113.82598 10.350000000000005 C 122.92598 13.450000000000005 129.42598 15.650000000000006 136.42598 15.850000000000005 C 141.72598000000002 16.050000000000004 146.42598 14.850000000000005 149.22598000000002 13.050000000000004 C 150.42598 12.250000000000004 151.02598000000003 11.550000000000004 151.32598000000002 11.050000000000004 C 151.52598 10.650000000000004 151.92598 9.850000000000005 151.92598 8.350000000000005 L 151.92598 8.150000000000006 C 151.92598 7.4500000000000055 151.92598 6.750000000000005 149.22598000000002 5.050000000000006 C 145.42598 2.650000000000006 139.62598000000003 0.7500000000000062 131.22598000000002 -1.8499999999999943 L 130.02598000000003 -2.2499999999999942 C 122.82598000000003 -4.449999999999994 113.32598000000003 -7.249999999999995 105.72598000000004 -11.849999999999994 C 96.72598000000004 -17.249999999999993 88.02598000000003 -26.549999999999994 88.02598000000003 -41.24999999999999 C 87.92598000000004 -56.44999999999999 96.62598000000003 -66.94999999999999 106.52598000000003 -72.85 C 115.92598000000004 -78.35 127.02598000000003 -80.35 136.22598000000002 -80.25 C 146.22598000000002 -80.05 155.92598 -77.95 164.12598000000003 -75.85 C 172.62598000000003 -73.55 177.72598000000002 -64.85 175.42598000000004 -56.24999999999999 C 173.12598000000003 -47.64999999999999 164.42598000000004 -42.64999999999999 155.82598000000004 -44.94999999999999 C 148.52598000000003 -46.84999999999999 141.72598000000005 -48.249999999999986 135.72598000000005 -48.34999999999999 C 130.82598000000004 -48.44999999999999 125.92598000000005 -47.249999999999986 122.82598000000004 -45.44999999999999 C 121.42598000000004 -44.64999999999999 120.72598000000005 -43.84999999999999 120.42598000000004 -43.44999999999999 C 120.22598000000004 -43.14999999999999 120.02598000000003 -42.64999999999999 120.02598000000003 -41.54999999999999 z M -151.97402 -41.25 L -151.97402 -40.85 C -151.87402 -40.75 -151.37402 -40.050000000000004 -149.77402 -39.15 C -145.87402 -36.85 -140.17402 -35.05 -131.47402 -32.35 L -130.87402 -32.15 C -123.47402 -29.95 -113.57402 -26.95 -105.67402 -21.95 C -96.57402 -16.25 -88.27402000000001 -6.75 -88.07401999999999 7.949999999999999 C -87.87401999999999 22.95 -95.67401999999998 33.95 -105.87401999999999 40.25 C -115.37401999999999 46.15 -126.77401999999998 48.15 -136.57402 47.85 C -148.87402 47.45 -160.77401999999998 43.35 -169.77402 40.25 C -171.07402000000002 39.85 -172.27402 39.45 -173.37402 39.05 C -181.77402 36.25 -186.27402 27.15 -183.47402 18.849999999999998 C -180.67401999999998 10.549999999999997 -171.57402 5.9499999999999975 -163.27402 8.749999999999998 C -161.87402 9.249999999999998 -160.47402 9.649999999999999 -159.17402 10.149999999999999 C -149.67402 13.349999999999998 -142.67402 15.749999999999998 -135.47402000000002 15.95 C -130.17402 16.15 -125.47402000000002 14.95 -122.67402000000003 13.149999999999999 C -121.47402000000002 12.349999999999998 -120.87402000000003 11.649999999999999 -120.57402000000003 11.149999999999999 C -120.37402000000003 10.749999999999998 -119.97402000000004 9.95 -119.97402000000004 8.45 L -119.97402000000004 8.25 C -119.97402000000004 7.55 -119.97402000000004 6.85 -122.67402000000004 5.15 C -126.47402000000004 2.7500000000000004 -132.27402000000004 0.8500000000000005 -140.67402000000004 -1.75 L -141.87402000000003 -2.15 C -149.07402000000002 -4.35 -158.57402000000002 -7.15 -166.17402000000004 -11.75 C -175.17402000000004 -17.05 -183.87402000000003 -26.35 -183.97402000000005 -41.05 C -184.07402000000005 -56.25 -175.37402000000006 -66.75 -165.47402000000005 -72.65 C -156.07402000000005 -78.15 -144.97402000000005 -80.15 -135.77402000000006 -80.05000000000001 C -126.27402000000006 -79.95000000000002 -113.57402000000006 -77.95000000000002 -104.67402000000007 -75.65 C -96.17402000000007 -73.35000000000001 -91.07402000000008 -64.65 -93.37402000000007 -56.050000000000004 C -95.67402000000007 -47.45 -104.37402000000007 -42.45 -112.97402000000008 -44.75 C -119.57402000000008 -46.55 -129.7740200000001 -48.05 -136.2740200000001 -48.15 C -141.1740200000001 -48.25 -146.0740200000001 -47.05 -149.1740200000001 -45.25 C -150.5740200000001 -44.45 -151.2740200000001 -43.65 -151.5740200000001 -43.25 C -151.7740200000001 -42.95 -151.9740200000001 -42.45 -151.9740200000001 -41.35 z" stroke-linecap="round" />
</g>
<g transform="matrix(0.6804490312 0 0 0.6983111619 212.7162716437 187.1822116636)" id="clw8yRW00rSJYVIGfzqxc"  >
<path style="stroke: rgb(255,255,255); stroke-width: 0; stroke-dasharray: none; stroke-linecap: butt; stroke-dashoffset: 0; stroke-linejoin: miter; stroke-miterlimit: 4; fill: rgb(255,255,255); fill-rule: nonzero; opacity: 1;"  transform=" translate(0.0000039996, -0.0000036232)" d="M -52.88627 -63.09822 C -46.38627 -65.29822 -39.18627000000001 -62.998219999999996 -34.986270000000005 -57.498219999999996 L 0.2137299999999982 -10.598219999999998 L 35.41373 -57.498219999999996 C 39.51373 -62.998219999999996 46.71373 -65.29822 53.31373 -63.09822 C 59.91373 -60.898219999999995 64.21373 -54.79822 64.21373 -47.898219999999995 L 64.21373 48.101780000000005 C 64.21373 56.90178 57.013729999999995 64.10178 48.21373 64.10178 C 39.41373 64.10178 32.21373 56.90178 32.21373 48.101780000000005 L 32.21373 0.10178000000000509 L 13.013729999999999 25.701780000000007 C 10.013729999999999 29.701780000000007 5.213729999999999 32.101780000000005 0.2137299999999982 32.101780000000005 C -4.786270000000002 32.101780000000005 -9.586270000000003 29.701780000000007 -12.586270000000003 25.701780000000007 L -31.786270000000002 0.10178000000000509 L -31.786270000000002 48.101780000000005 C -31.786270000000002 56.90178 -38.986270000000005 64.10178 -47.78627 64.10178 C -56.58627 64.10178 -63.78627 56.90178 -63.78627 48.101780000000005 L -63.78627 -47.898219999999995 C -63.78627 -54.79821999999999 -59.38627 -60.898219999999995 -52.88627 -63.09822 z M 120.21373 -25.09822 L 120.21373 -24.698220000000003 C 120.31372999999999 -24.59822 120.81372999999999 -23.898220000000002 122.41373 -22.998220000000003 C 126.31373 -20.698220000000003 132.01373 -18.898220000000002 140.71373 -16.198220000000003 L 141.31373 -15.998220000000003 C 148.71373 -13.798220000000004 158.61373 -10.798220000000004 166.51372999999998 -5.798220000000004 C 175.61372999999998 -0.09822000000000397 183.91373 9.401779999999995 184.11372999999998 24.101779999999994 C 184.31372999999996 39.10177999999999 176.51372999999998 50.10177999999999 166.31372999999996 56.40177999999999 C 156.81372999999996 62.30177999999999 145.41372999999996 64.30178 135.61372999999998 64.00177999999998 C 123.41372999999997 63.601779999999984 111.91372999999997 59.601779999999984 103.01372999999998 56.601779999999984 C 101.61372999999998 56.101779999999984 100.31372999999998 55.701779999999985 99.01372999999998 55.201779999999985 C 90.61372999999998 52.40177999999999 86.11372999999998 43.30177999999999 88.91372999999999 35.00177999999998 C 91.71372999999998 26.70177999999998 100.81372999999999 22.101779999999984 109.11372999999999 24.90177999999998 C 110.81372999999999 25.501779999999982 112.41372999999999 26.001779999999982 114.01373 26.501779999999982 C 123.11372999999999 29.601779999999984 129.61373 31.801779999999983 136.61373 32.00177999999998 C 141.91373000000002 32.201779999999985 146.61373 31.001779999999982 149.41373000000002 29.20177999999998 C 150.61373 28.40177999999998 151.21373000000003 27.70177999999998 151.51373 27.20177999999998 C 151.71373 26.801779999999983 152.11373 26.001779999999982 152.11373 24.501779999999982 L 152.11373 24.301779999999983 C 152.11373 23.601779999999984 152.11373 22.901779999999984 149.41373000000002 21.20177999999998 C 145.61373 18.801779999999983 139.81373000000002 16.90177999999998 131.41373000000002 14.301779999999981 L 130.21373000000003 13.901779999999981 C 123.01373000000002 11.701779999999982 113.51373000000002 8.901779999999981 105.91373000000003 4.301779999999981 C 96.91373000000003 -1.098220000000019 88.21373000000003 -10.398220000000018 88.21373000000003 -25.09822000000002 C 88.11373000000003 -40.298220000000015 96.81373000000002 -50.798220000000015 106.71373000000003 -56.69822000000002 C 116.11373000000003 -62.19822000000002 127.21373000000003 -64.19822000000002 136.41373000000002 -64.09822000000003 C 146.41373000000002 -63.89822000000002 156.11373 -61.79822000000003 164.31373000000002 -59.69822000000003 C 172.81373000000002 -57.39822000000003 177.91373000000002 -48.69822000000003 175.61373000000003 -40.098220000000026 C 173.31373000000002 -31.498220000000025 164.61373000000003 -26.498220000000025 156.01373000000004 -28.798220000000025 C 148.71373000000003 -30.698220000000024 141.91373000000004 -32.098220000000026 135.91373000000004 -32.19822000000003 C 131.01373000000004 -32.29822000000003 126.11373000000005 -31.098220000000026 123.01373000000004 -29.29822000000003 C 121.61373000000003 -28.49822000000003 120.91373000000004 -27.698220000000028 120.61373000000003 -27.29822000000003 C 120.41373000000003 -26.99822000000003 120.21373000000003 -26.49822000000003 120.21373000000003 -25.39822000000003 z M -151.78627 -25.09822 L -151.78627 -24.698220000000003 C -151.68627 -24.59822 -151.18627 -23.898220000000002 -149.58627 -22.998220000000003 C -145.68627 -20.698220000000003 -139.98627000000002 -18.898220000000002 -131.28627 -16.198220000000003 L -130.68627 -15.998220000000003 C -123.28627 -13.798220000000004 -113.38627000000001 -10.798220000000004 -105.48627 -5.798220000000004 C -96.38627000000001 -0.09822000000000397 -88.08627000000001 9.401779999999995 -87.88627 24.101779999999994 C -87.68627 39.10177999999999 -95.48626999999999 50.10177999999999 -105.68627 56.40177999999999 C -115.18627 62.30177999999999 -126.58626999999998 64.30178 -136.38627 64.00177999999998 C -148.68627 63.601779999999984 -160.58626999999998 59.50177999999998 -169.58627 56.40177999999998 C -170.88627000000002 56.00177999999998 -172.08627 55.601779999999984 -173.18627 55.20177999999998 C -181.58627 52.40177999999998 -186.08627 43.30177999999998 -183.28627 35.00177999999998 C -180.48627 26.70177999999998 -171.38627 22.101779999999984 -163.08627 24.90177999999998 C -161.68627 25.40177999999998 -160.28627 25.80177999999998 -158.98627000000002 26.30177999999998 C -149.48627000000002 29.50177999999998 -142.48627000000002 31.90177999999998 -135.28627000000003 32.10177999999998 C -129.98627000000002 32.30177999999998 -125.28627000000003 31.101779999999977 -122.48627000000003 29.301779999999976 C -121.28627000000003 28.501779999999975 -120.68627000000004 27.801779999999976 -120.38627000000004 27.301779999999976 C -120.18627000000004 26.901779999999977 -119.78627000000004 26.101779999999977 -119.78627000000004 24.601779999999977 L -119.78627000000004 24.401779999999977 C -119.78627000000004 23.701779999999978 -119.78627000000004 23.00177999999998 -122.48627000000005 21.301779999999976 C -126.28627000000004 18.901779999999977 -132.08627000000004 17.001779999999975 -140.48627000000005 14.401779999999976 L -141.68627000000004 14.001779999999975 C -148.88627000000002 11.801779999999976 -158.38627000000002 9.001779999999975 -165.98627000000005 4.401779999999976 C -174.98627000000005 -0.8982200000000242 -183.68627000000004 -10.198220000000024 -183.78627000000006 -24.898220000000023 C -183.88627000000005 -40.098220000000026 -175.18627000000006 -50.598220000000026 -165.28627000000006 -56.498220000000025 C -155.88627000000005 -61.998220000000025 -144.78627000000006 -63.998220000000025 -135.58627000000007 -63.89822000000002 C -126.08627000000007 -63.79822000000002 -113.38627000000007 -61.79822000000002 -104.48627000000008 -59.498220000000025 C -95.98627000000008 -57.19822000000003 -90.88627000000008 -48.498220000000025 -93.18627000000008 -39.89822000000002 C -95.48627000000008 -31.298220000000022 -104.18627000000008 -26.298220000000022 -112.78627000000009 -28.598220000000023 C -119.38627000000008 -30.398220000000023 -129.5862700000001 -31.898220000000023 -136.0862700000001 -31.99822000000002 C -140.9862700000001 -32.09822000000002 -145.8862700000001 -30.89822000000002 -148.9862700000001 -29.098220000000023 C -150.3862700000001 -28.298220000000022 -151.0862700000001 -27.49822000000002 -151.3862700000001 -27.098220000000023 C -151.5862700000001 -26.798220000000022 -151.78627000000012 -26.298220000000022 -151.78627000000012 -25.198220000000024 z" stroke-linecap="round" />
</g>
<g transform="matrix(17.6341602289 0 0 17.6341602289 374.8978814498 358.0023463225)" id="ukgYBYzNXjGNH0srf3UTR"  >
<path style="stroke:white;stroke-width: 1; stroke-dasharray: none; stroke-linecap: butt; stroke-dashoffset: 0; stroke-linejoin: miter; stroke-miterlimit: 4; stroke: white;fill-rule: nonzero; opacity: 1;filter: url(#SVGID_791);"  transform=" translate(0, 0.00000375)" d="M 1.156 6.55156 C 2.899 5.0175600000000005 6 1.8835600000000001 6 -0.9924399999999993 C 6 -4.306149999999999 3.31371 -6.992439999999999 0 -6.992439999999999 C -3.31371 -6.992439999999999 -6 -4.306149999999999 -6 -0.9924399999999993 C -6 1.8835600000000006 -2.9 5.0175600000000005 -1.1559999999999997 6.55156 C -0.49741999999999964 7.139390000000001 0.4974200000000002 7.139390000000001 1.1560000000000001 6.55156 z M -2 -0.99244 C -2 -2.09701 -1.10457 -2.99244 0 -2.99244 C 1.10457 -2.99244 2 -2.09701 2 -0.9924400000000002 C 2 0.11212999999999984 1.10457 1.0075599999999998 0 1.0075599999999998 C -1.10457 1.0075599999999998 -2 0.11212999999999984 -2 -0.9924400000000002 z" stroke-linecap="round" />
<filter id="SVGID_791" y="-27.1505836%" height="154.3011672%" x="-28.333333330000002%" width="156.66666666%" >
	<feGaussianBlur in="SourceAlpha" stdDeviation="0.5"></feGaussianBlur>
	<feOffset dx="0" dy="0" result="oBlur" ></feOffset>
	<feFlood flood-color="rgb(173,127,245)" flood-opacity="1"/>
	<feComposite in2="oBlur" operator="in" />
	<feMerge>
		<feMergeNode></feMergeNode>
		<feMergeNode in="SourceGraphic"></feMergeNode>
	</feMerge>
</filter>
<path style="stroke: none; stroke-width: 1; stroke-dasharray: none; stroke-linecap: butt; stroke-dashoffset: 0; stroke-linejoin: miter; stroke-miterlimit: 4; fill: rgb(172,126,244); fill-rule: nonzero; opacity: 1;"  transform=" translate(0, 0.00000375)" d="M 1.156 6.55156 C 2.899 5.0175600000000005 6 1.8835600000000001 6 -0.9924399999999993 C 6 -4.306149999999999 3.31371 -6.992439999999999 0 -6.992439999999999 C -3.31371 -6.992439999999999 -6 -4.306149999999999 -6 -0.9924399999999993 C -6 1.8835600000000006 -2.9 5.0175600000000005 -1.1559999999999997 6.55156 C -0.49741999999999964 7.139390000000001 0.4974200000000002 7.139390000000001 1.1560000000000001 6.55156 z M -2 -0.99244 C -2 -2.09701 -1.10457 -2.99244 0 -2.99244 C 1.10457 -2.99244 2 -2.09701 2 -0.9924400000000002 C 2 0.11212999999999984 1.10457 1.0075599999999998 0 1.0075599999999998 C -1.10457 1.0075599999999998 -2 0.11212999999999984 -2 -0.9924400000000002 z" stroke-linecap="round" />
</g>
<g transform="matrix(0.6046875888 0 0 0.6046875888 374.7247353009 340.3588981681)" id="37kkvvkRcsUKwwXJ14h0y"  >
<path style="stroke: rgb(237,48,108); stroke-width: 0; stroke-dasharray: none; stroke-linecap: butt; stroke-dashoffset: 0; stroke-linejoin: miter; stroke-miterlimit: 4; fill: rgb(255,255,255); fill-rule: nonzero; opacity: 1;"  transform=" translate(0, 0)" d="M 0 -58.82353 C 32.47059 -58.82353 58.82353 -32.47059 58.82353 0 C 58.82353 32.47059 32.47059 58.82353 0 58.82353 C -32.47059 58.82353 -58.82353 32.47059 -58.82353 0 C -58.82353 -32.47059 -32.47059 -58.82353 0 -58.82353 z" stroke-linecap="round" />
</g>
</svg>