<?xml version="1.0" encoding="UTF-8" standalone="no"?>
<svg
   viewBox="0 0 19 19"
   height="19"
   width="19"
   version="1.1"
   id="svg1"
   xmlns="http://www.w3.org/2000/svg"
   xmlns:svg="http://www.w3.org/2000/svg"
   xmlns:rdf="http://www.w3.org/1999/02/22-rdf-syntax-ns#"
   xmlns:cc="http://creativecommons.org/ns#"
   xmlns:dc="http://purl.org/dc/elements/1.1/">
  <defs
     id="defs1" />
  <title
     id="title1">soccer.svg</title>
  <metadata
     id="metadata1">
    <rdf:RDF>
      <cc:Work
         rdf:about="">
        <dc:title>soccer.svg</dc:title>
      </cc:Work>
    </rdf:RDF>
  </metadata>
  <g
     id="g1">
    <path
       style="clip-rule:evenodd;opacity:0.933;fill:#000000;fill-rule:evenodd;stroke-width:0.15455;image-rendering:optimizeQuality;shape-rendering:geometricPrecision;text-rendering:geometricPrecision"
       fill="#000000"
       d="m 3.8140002,1.4982906 c 0.8242661,0 1.6485323,0 2.4727984,0 4.1665744,1.0408708 7.6439434,3.2045707 10.4320904,6.491085 0.551804,0.7783262 0.989686,1.6025858 1.313681,2.4727934 0,0.515159 0,1.030335 0,1.545496 -0.382257,0.510708 -0.845914,0.948594 -1.390954,1.313671 -1.837598,0.31049 -3.666435,0.645353 -5.486511,1.004572 -0.06208,-0.212057 -0.139351,-0.418118 -0.23182,-0.618197 1.314712,-0.365402 2.654151,-0.648738 4.018299,-0.850024 C 12.619616,9.4537797 9.5286147,7.0325116 5.6685949,5.5938554 5.0585951,5.415506 4.4403914,5.2867202 3.8140002,5.2074818 4.2248642,6.9007587 4.5597157,8.600805 4.818571,10.307618 4.6640241,10.410658 4.5094773,10.513679 4.3549305,10.616719 3.8717383,8.7675626 3.4080814,6.9129679 2.9639762,5.0529317 2.8323379,4.8874562 2.7035489,4.7329061 2.5776091,4.589283 c 0,-0.5151594 0,-1.0303351 0,-1.5454962 C 2.841295,2.4152964 3.2534199,1.9001321 3.8140002,1.4982906 Z"
       id="path1-4" />
    <path
       style="clip-rule:evenodd;opacity:0.853;fill:#000000;fill-opacity:1;fill-rule:evenodd;stroke-width:0.15455;image-rendering:optimizeQuality;shape-rendering:geometricPrecision;text-rendering:geometricPrecision"
       fill="#000000"
       d="m 6.4413455,16.953252 c -0.3090937,0 -0.6182037,0 -0.9272974,0 C 5.2588444,16.726049 4.9754922,16.519989 4.6640241,16.335055 4.5288161,16.122827 4.4515427,15.891002 4.4322039,15.639581 4.5561132,15.113494 4.71066,14.598333 4.8958444,14.094085 4.3652139,13.085911 4.2879241,12.029827 4.6640241,10.925817 c 0.4856976,-0.253893 0.8205327,-0.125108 1.0045708,0.386374 -0.5703397,1.021868 -0.3642772,1.846127 0.6182037,2.472795 0.5422403,0.323658 1.1089121,0.555481 1.700048,0.695472 0.2060624,-0.02576 0.4121412,-0.05151 0.6182037,-0.07728 0.4357044,-0.384982 0.9251194,-0.668317 1.4682117,-0.850022 0.289246,0.03236 0.469534,0.186912 0.540929,0.463649 -0.7269003,1.112108 -1.7572123,1.653032 -3.0910013,1.622771 -0.3442507,0.471006 -0.70486,0.90889 -1.0818442,1.313671 z"
       id="path2" />
    <path
       style="clip-rule:evenodd;opacity:0.89;fill:#000000;fill-rule:evenodd;stroke-width:0.15455;image-rendering:optimizeQuality;shape-rendering:geometricPrecision;text-rendering:geometricPrecision"
       fill="#000000"
       d="m 6.7504555,11.698566 c 1.7491728,-0.07882 2.1613142,0.616653 1.2363911,2.08642 -1.7610119,0.124057 -2.1731532,-0.571417 -1.2363911,-2.08642 z"
       id="path3" />
  </g>
</svg>
