<?xml version="1.0" encoding="UTF-8" standalone="no"?>
<svg
   viewBox="0 0 19 19"
   height="19"
   width="19"
   version="1.1"
   id="svg1"
   xmlns="http://www.w3.org/2000/svg"
   xmlns:svg="http://www.w3.org/2000/svg"
   xmlns:rdf="http://www.w3.org/1999/02/22-rdf-syntax-ns#"
   xmlns:cc="http://creativecommons.org/ns#"
   xmlns:dc="http://purl.org/dc/elements/1.1/">
  <defs
     id="defs1" />
  <title
     id="title1">soccer.svg</title>
  <metadata
     id="metadata1">
    <rdf:RDF>
      <cc:Work
         rdf:about="">
        <dc:title>soccer.svg</dc:title>
      </cc:Work>
    </rdf:RDF>
  </metadata>
  <g
     id="g1">
    <path
       style="clip-rule:evenodd;opacity:0.933;fill:#000000;fill-rule:evenodd;stroke-width:0.15455;image-rendering:optimizeQuality;shape-rendering:geometricPrecision;text-rendering:geometricPrecision"
       fill="#000000"
       d="m 3.566632,1.4653073 c 0.8242661,0 1.6485323,0 2.4727984,0 4.1665746,1.0408708 7.6439436,3.2045707 10.4320906,6.491085 0.551804,0.7783262 0.989686,1.6025858 1.313681,2.4727937 0,0.515159 0,1.030335 0,1.545496 -0.382257,0.510708 -0.845914,0.948594 -1.390954,1.313671 -1.837598,0.31049 -3.666435,0.645353 -5.486511,1.004572 -0.06208,-0.212057 -0.139351,-0.418118 -0.23182,-0.618197 1.314712,-0.365402 2.654151,-0.648738 4.018299,-0.850024 C 12.372248,9.4207964 9.2812465,6.9995283 5.4212267,5.5608721 4.8112269,5.3825227 4.1930232,5.2537369 3.566632,5.1744985 3.977496,6.8677754 4.3123475,8.5678217 4.5712028,10.274635 4.4166559,10.377675 4.2621091,10.480696 4.1075623,10.583736 3.6243701,8.7345793 3.1607132,6.8799846 2.716608,5.0199484 2.5849697,4.8544729 2.4561807,4.6999228 2.3302409,4.5562997 c 0,-0.5151594 0,-1.0303351 0,-1.5454962 C 2.5939268,2.3823131 3.0060517,1.8671488 3.566632,1.4653073 Z"
       id="path1-4" />
    <path
       style="clip-rule:evenodd;opacity:0.853;fill:#000000;fill-opacity:1;fill-rule:evenodd;stroke-width:0.15455;image-rendering:optimizeQuality;shape-rendering:geometricPrecision;text-rendering:geometricPrecision"
       fill="#000000"
       d="m 6.1939773,16.920269 c -0.3090937,0 -0.6182037,0 -0.9272974,0 C 5.0114762,16.693066 4.728124,16.487006 4.4166559,16.302072 4.2814479,16.089844 4.2041745,15.858019 4.1848357,15.606598 4.308745,15.080511 4.4632918,14.56535 4.6484762,14.061102 4.1178457,13.052928 4.0405559,11.996844 4.4166559,10.892834 c 0.4856976,-0.253893 0.8205327,-0.125108 1.0045708,0.386374 -0.5703397,1.021868 -0.3642772,1.846127 0.6182037,2.472795 0.5422403,0.323658 1.1089121,0.555481 1.700048,0.695472 0.2060624,-0.02576 0.4121412,-0.05151 0.6182037,-0.07728 0.4357044,-0.384982 0.9251194,-0.668317 1.4682114,-0.850022 0.2892465,0.03236 0.4695345,0.186912 0.5409295,0.463649 -0.7269005,1.112108 -1.7572125,1.653032 -3.0910015,1.622771 -0.3442507,0.471006 -0.70486,0.90889 -1.0818442,1.313671 z"
       id="path2" />
    <path
       style="clip-rule:evenodd;opacity:0.89;fill:#000000;fill-rule:evenodd;stroke-width:0.15455;image-rendering:optimizeQuality;shape-rendering:geometricPrecision;text-rendering:geometricPrecision"
       fill="#000000"
       d="m 6.5030873,11.665583 c 1.7491728,-0.07882 2.1613142,0.616653 1.2363911,2.08642 -1.7610119,0.124057 -2.1731532,-0.571417 -1.2363911,-2.08642 z"
       id="path3" />
  </g>
</svg>
