<?xml version="1.0" encoding="UTF-8" standalone="no"?>
<svg
   viewBox="0 0 19 19"
   height="19"
   width="19"
   version="1.1"
   id="svg1"
   xmlns="http://www.w3.org/2000/svg"
   xmlns:svg="http://www.w3.org/2000/svg"
   xmlns:rdf="http://www.w3.org/1999/02/22-rdf-syntax-ns#"
   xmlns:cc="http://creativecommons.org/ns#"
   xmlns:dc="http://purl.org/dc/elements/1.1/">
  <defs
     id="defs1" />
  <title
     id="title1">soccer.svg</title>
  <metadata
     id="metadata1">
    <rdf:RDF>
      <cc:Work
         rdf:about="">
        <dc:title>soccer.svg</dc:title>
      </cc:Work>
    </rdf:RDF>
  </metadata>
  <g
     id="g1">
    <path
       style="clip-rule:evenodd;fill:#000000;fill-rule:evenodd;stroke-width:0.229812;image-rendering:optimizeQuality;shape-rendering:geometricPrecision;text-rendering:geometricPrecision"
       fill="#8f9fa2"
       d="m 10.893974,1.7231826 c 0.07492,1.0074972 -0.0018,2.0032739 -0.229812,2.9875599 C 10.524666,4.6822458 10.448138,4.6057183 10.43435,4.4809302 10.587634,3.561681 10.740689,2.6424319 10.893974,1.7231826 Z"
       id="path18" />
    <path
       style="clip-rule:evenodd;fill:#000000;fill-rule:evenodd;stroke-width:0.229812;image-rendering:optimizeQuality;shape-rendering:geometricPrecision;text-rendering:geometricPrecision"
       fill="#405b5e"
       d="m 12.962285,4.9405548 c 1.702909,-0.3343768 3.120162,0.1252478 4.251527,1.3788738 0.153285,0.5361521 0.153285,1.0725341 0,1.6086861 -0.500761,0.1415644 -0.922006,0.4097554 -1.263967,0.8043431 -1.562494,0.1252477 -2.060497,-0.5258105 -1.49378,-1.9534046 L 13.42191,6.3194286 C 12.572753,5.9689649 12.419698,5.5093403 12.962285,4.9405548 Z"
       id="path19" />
    <path
       style="clip-rule:evenodd;fill:#000000;fill-rule:evenodd;stroke-width:0.229812;image-rendering:optimizeQuality;shape-rendering:geometricPrecision;text-rendering:geometricPrecision"
       fill="#3a5a5e"
       d="m 10.893974,1.7231826 c 0.04325,0.2465105 0.154875,-0.6934724 0.17159,-0.4492118 0.08429,1.2316975 -0.192687,3.6386251 -0.05668,5.0454578 C 10.58028,6.8188108 10.082507,6.8955681 9.5151004,6.5492409 8.7178816,5.8740524 8.4496906,5.0315605 8.7107574,4.0213057 9.4411009,3.6382085 10.015632,3.7914933 10.43435,4.4809302 c 0.01379,0.1247881 0.09032,0.2013156 0.229812,0.2298123 0.227974,-0.984286 0.304731,-1.9800627 0.229812,-2.9875599 z"
       id="path20" />
    <path
       style="clip-rule:evenodd;fill:#000000;fill-rule:evenodd;stroke-width:0.229812;image-rendering:optimizeQuality;shape-rendering:geometricPrecision;text-rendering:geometricPrecision"
       fill="#3e5e62"
       d="m 4.6890421,1.4933703 c 0.2288701,-0.019764 0.4203727,0.056993 0.5745308,0.2298123 0.8133057,1.6661392 1.7709336,3.2364467 2.8726537,4.7111522 1.6852136,0.6894369 3.3706574,1.3788738 5.0558704,2.0683107 0.493637,0.4768605 0.570394,1.0130126 0.229813,1.6086865 -2.670879,0.449283 -4.164659,2.01982 -4.4813403,4.711152 C 8.760167,15.232929 8.4922059,15.577647 8.1362266,15.856639 6.9908421,16.401294 5.8034939,16.82277 4.574136,17.120607 3.5926766,16.953763 3.3245546,16.417611 3.7697929,15.511921 6.6166236,15.221272 7.4339272,13.96072 8.2737532,11.082054 8.5966924,9.9751287 9.050482,9.720699 9.4322117,9.1805895 10.027665,8.3380884 5.7675681,7.3914341 5.1486667,7.353584 4.4824869,6.6282964 4.5590833,6.0156168 5.378479,5.5150856 5.876873,5.4164961 6.3364976,5.5314023 6.7573528,5.8598041 6.8339493,5.7832766 6.9106377,5.7065192 6.9871651,5.6299918 6.0989636,4.3127076 5.3329303,2.9338338 4.6890421,1.4933703 Z"
       id="path21" />
    <path
       style="clip-rule:evenodd;fill:#000000;fill-rule:evenodd;stroke-width:0.229812;image-rendering:optimizeQuality;shape-rendering:geometricPrecision;text-rendering:geometricPrecision"
       fill="#3e5e62"
       d="m 10.664162,12.294548 c 1.344632,0.150528 2.244676,0.763437 3.121409,1.838499 0.383098,0.612909 0.976834,1.225589 1.359931,1.838498 0.176725,0.597282 0.138347,1.171813 -0.114906,1.723593 -0.383097,0.153284 -0.765965,0.153284 -1.149062,0 -0.691045,-1.687053 -1.801728,-3.027548 -3.332278,-4.021716 -0.155813,-0.482146 -0.117434,-0.941771 0.114906,-1.378874 z"
       id="path23" />
  </g>
</svg>
