<?xml version="1.0" encoding="UTF-8"?>
<!DOCTYPE svg PUBLIC "-//W3C//DTD SVG 1.1//EN" "http://www.w3.org/Graphics/SVG/1.1/DTD/svg11.dtd">
<svg xmlns="http://www.w3.org/2000/svg" version="1.1" width="100px" height="100px" style="shape-rendering:geometricPrecision; text-rendering:geometricPrecision; image-rendering:optimizeQuality; fill-rule:evenodd; clip-rule:evenodd" xmlns:xlink="http://www.w3.org/1999/xlink">
<g><path style="opacity:0.933" fill="#000000" d="M 7.5,-0.5 C 12.8333,-0.5 18.1667,-0.5 23.5,-0.5C 50.4595,6.23486 72.9595,20.2349 91,41.5C 94.5703,46.5361 97.4036,51.8694 99.5,57.5C 99.5,60.8333 99.5,64.1667 99.5,67.5C 97.0266,70.8045 94.0266,73.6378 90.5,76C 78.6099,78.009 66.7766,80.1757 55,82.5C 54.5983,81.1279 54.0983,79.7946 53.5,78.5C 62.0067,76.1357 70.6734,74.3024 79.5,73C 64.4759,50.9753 44.4759,35.3087 19.5,26C 15.553,24.846 11.553,24.0127 7.5,23.5C 10.1584,34.4562 12.3251,45.4562 14,56.5C 13,57.1667 12,57.8333 11,58.5C 7.87354,46.5352 4.87354,34.5352 2,22.5C 1.14825,21.4293 0.314913,20.4293 -0.5,19.5C -0.5,16.1667 -0.5,12.8333 -0.5,9.5C 1.20613,5.43341 3.8728,2.10008 7.5,-0.5 Z"/></g>
<g><path style="opacity:0.853" fill="#000000" d="M 24.5,99.5 C 22.5,99.5 20.5,99.5 18.5,99.5C 16.8487,98.0299 15.0153,96.6966 13,95.5C 12.1251,94.1268 11.6251,92.6268 11.5,91C 12.3017,87.596 13.3017,84.2627 14.5,81C 11.0665,74.4767 10.5665,67.6434 13,60.5C 16.1426,58.8572 18.3092,59.6905 19.5,63C 15.8096,69.6119 17.1429,74.9452 23.5,79C 27.0085,81.0942 30.6751,82.5942 34.5,83.5C 35.8333,83.3333 37.1667,83.1667 38.5,83C 41.3192,80.509 44.4859,78.6757 48,77.5C 49.8715,77.7094 51.0381,78.7094 51.5,80.5C 46.7967,87.6958 40.1301,91.1958 31.5,91C 29.2725,94.0476 26.9392,96.8809 24.5,99.5 Z"/></g>
<g><path style="opacity:0.89" fill="#000000" d="M 26.5,65.5 C 37.8179,64.99 40.4846,69.49 34.5,79C 23.1055,79.8027 20.4388,75.3027 26.5,65.5 Z"/></g>
</svg>
